<svg width="1054" height="1117" viewBox="0 0 1054 1117" fill="none" xmlns="http://www.w3.org/2000/svg">
<g clip-path="url(#clip0_219_2)">
<path d="M551.699 18.8704V1148.78" stroke="black" stroke-opacity="0.17" stroke-width="1.2506"/>
<path d="M239.05 -134.328V1241.33" stroke="black" stroke-opacity="0.17" stroke-width="1.2506"/>
<path d="M864.348 -6.14148V1203.18" stroke="black" stroke-opacity="0.17" stroke-width="1.2506"/>
<path d="M0.185547 173.944H1013.17" stroke="black" stroke-opacity="0.17" stroke-width="1.2506"/>
<path d="M13.9424 487.218H1184.5" stroke="black" stroke-opacity="0.17" stroke-width="1.2506"/>
<path d="M64 799.867H986.281" stroke="black" stroke-opacity="0.17" stroke-width="1.2506"/>
<path d="M395.374 408.431C395.374 365.263 360.379 330.269 317.212 330.269C274.044 330.269 239.05 365.263 239.05 408.431C239.05 451.599 274.044 486.593 317.212 486.593C360.379 486.593 395.374 451.599 395.374 408.431Z" fill="#313131"/>
<path fill-rule="evenodd" clip-rule="evenodd" d="M396.626 641.667C396.625 641.877 396.625 642.087 396.625 642.297C396.625 728.288 466.334 799.242 552.324 799.242C638.314 799.242 708.023 728.288 708.023 642.297C708.023 642.087 708.023 641.877 708.022 641.667H632.985C632.987 641.877 632.987 642.087 632.987 642.297C632.987 687.626 596.098 724.206 552.324 724.206C508.55 724.206 471.661 687.626 471.661 642.297C471.661 642.087 471.661 641.877 471.663 641.667H396.626Z" fill="#F43F54"/>
<path d="M864.347 252.106C864.347 208.938 829.353 173.944 786.185 173.944C743.018 173.944 708.023 208.938 708.023 252.106C708.023 295.274 743.018 330.268 786.185 330.268C829.353 330.268 864.347 295.274 864.347 252.106Z" fill="#FE6532"/>
<path d="M786.186 671.056H786.186C758.559 671.056 736.162 693.452 736.162 721.08V877.404C736.162 905.032 758.559 927.428 786.186 927.428H786.186C813.814 927.428 836.21 905.032 836.21 877.404V721.08C836.21 693.452 813.814 671.056 786.186 671.056Z" stroke="#14AAF5" stroke-width="56.2768"/>
<path d="M631.112 955.566C674.28 955.566 709.274 920.572 709.274 877.404C709.274 834.236 674.28 799.242 631.112 799.242H474.788C431.62 799.242 396.625 834.236 396.625 877.404C396.625 920.572 431.62 955.566 474.788 955.566H631.112Z" fill="#313131"/>
<path d="M549.823 250.857V250.856C549.823 208.725 515.669 174.57 473.537 174.57L317.213 174.57C275.081 174.57 240.926 208.725 240.926 250.856V250.857C240.926 292.988 275.081 327.143 317.213 327.143H473.537C515.669 327.143 549.823 292.988 549.823 250.857Z" stroke="#313131" stroke-width="3.75179"/>
<path d="M239.05 486.593H395.374V642.918C309.039 642.918 239.05 572.929 239.05 486.593Z" fill="#14AAF5"/>
<path d="M708.023 330.269H551.699V173.944C638.034 173.944 708.023 243.933 708.023 330.269Z" fill="#796EFF"/>
<path d="M864.348 330.269V486.593H708.023C708.023 400.258 778.012 330.269 864.348 330.269Z" fill="#FCBD01"/>
<path d="M708.023 486.593H864.348V642.918C778.012 642.918 708.023 572.929 708.023 486.593Z" fill="#796EFF"/>
<path d="M239.05 642.918H395.374V799.242C309.039 799.242 239.05 729.253 239.05 642.918Z" fill="#FE6532"/>
<path fill-rule="evenodd" clip-rule="evenodd" d="M634.963 811.649C598.647 811.649 569.207 841.088 569.207 877.404C569.207 913.72 598.647 943.16 634.963 943.16C635.138 943.16 635.313 943.159 635.489 943.158V811.651C635.313 811.649 635.138 811.649 634.963 811.649Z" fill="white"/>
<path fill-rule="evenodd" clip-rule="evenodd" d="M477.914 185.102C477.738 185.101 477.563 185.1 477.387 185.1C441.072 185.1 411.632 214.54 411.632 250.856C411.632 287.172 441.072 316.611 477.387 316.611C477.563 316.611 477.738 316.611 477.914 316.609V185.102Z" fill="#313131"/>
<path d="M396.625 485.968C396.625 399.978 466.334 330.269 552.324 330.269H708.023V485.968C708.023 571.958 638.314 641.667 552.324 641.667C466.334 641.667 396.625 571.958 396.625 485.968Z" fill="#A7A7A7"/>
<path d="M244 803H322.162C365.33 803 400.325 837.994 400.325 881.162C400.325 924.33 365.33 959.324 322.162 959.324C278.995 959.324 244 924.33 244 881.162V803Z" fill="#FCBD01"/>
<path d="M360.305 881.162C360.305 860.096 343.228 843.019 322.162 843.019C301.096 843.019 284.019 860.096 284.019 881.162C284.019 902.228 301.096 919.305 322.162 919.305C343.228 919.305 360.305 902.228 360.305 881.162Z" fill="white"/>
</g>
<defs>
<clipPath id="clip0_219_2">
<rect width="1054" height="1117" fill="white"/>
</clipPath>
</defs>
</svg>
